<svg id="Layer_1" data-name="Layer 1" xmlns="http://www.w3.org/2000/svg" width="329.3186" height="102.3222" viewBox="0 0 329.3186 102.3222"><defs><style>.cls-1{fill:#232323;}</style></defs><g id="layer1"><path class="cls-1" d="M138.8352,83.4931l6.57-20.2595c-2.6351-.2522-18.4063.6944-20.5125-.7462a4.7642,4.7642,0,0,1-2.2982-2.45,8.3987,8.3987,0,0,1-.6589-4.699,21.7289,21.7289,0,0,1,5.3323-11.1576c2.9619-2.98,6.3743-4.9778,10.409-5.0708,4.4989-.0655,8.5335,3.2947,6.5591,8.0174-1.49,4.4012-6.7267,7.86-10.8523,10.7645H147.13c1.8851-5.71,2.7594-11.4277,1.3222-17.035l5.1652-1.1182a39.5542,39.5542,0,0,1,.9956,7.8493c3.8618-3.9268,8.92-8.2086,14.7347-7.2326a8.7434,8.7434,0,0,1,7.5884,8.7313c.0287,3.1327-1.7343,6.2426-3.4914,8.8052h6.8308c-1.161-2.3655,4.321-16.8,4.442-17.7431h5.5894L185.63,54.7023c-.0741.2112-.1576.436-.2244.65-.0272.7581.0208,1.7773.7531,2.21,2.0207.92,4.1508-.1756,5.7687-1.488,2.4191-1.6838,5.0518-13.349,6.2046-15.9257h5.54l-4.611,14.547c-.0742.21-.1583.435-.229.6463a2.9749,2.9749,0,0,0,.3537,1.8186c.7213,1.2281,3.9.5751,5.0833.7314l-1.7776,5.3415a9.23,9.23,0,0,1-7.6114-2.7091c-2.7721,2.1332-6.5533,3.4223-9.9681,2.2805-1.8452-.5332-3.1458-2.0675-4.37-3.4017l-1.216,3.83H158.0244V57.8914c1.7583-.074,4.8675.2662,6.5223-.4591,3.3332-1.1923,7.1527-4.6547,7.05-8.346a3.0253,3.0253,0,0,0-1.3607-2.7916c-3.9593-2.321-8.2355,1.3772-11.18,4.389a47.6722,47.6722,0,0,0-5.3113,7.2963c-3.44,4.8863-7.7573,21.4454-9.8508,27.1811ZM128.3822,54.62v.0113c4.9858-2.7873,9.5272-5.7434,11.6142-10.491-4.7143-.1144-7.5128,1.609-9.78,4.7511A9.8193,9.8193,0,0,0,128.3822,54.62ZM26.4533,81.618A112.6325,112.6325,0,0,0,37.8506,62.1694a51.9182,51.9182,0,0,1-7.2131,2.6063C21.04,66.7,13.1981,62.7572,14.194,51.9931,15.0166,38.2488,35.0114,19.1871,48.3293,17.4c5.4162-1.0721,11.2674,3.0443,9.6566,8.8856-2.14,7.3767-8.1244,12.7531-13.9289,17.8732l-3.4012-4.0961C45.2473,36.1284,52.2925,29.61,52.8772,23.7987c-3.2061-3.4208-8.7306.258-11.9906,2.0375C32.1056,31.1938,22.7517,39.905,19.97,50.0276a11.14,11.14,0,0,0,.1261,7.2094c.8985,2.319,4.004,2.78,6.1982,2.7933,6.0216.0883,11.1521-4.0646,15.4415-7.879l.4085-.1986c.344-.94.6507-1.9378,1.0475-2.85l5.021,1.8888C43.4536,62.927,38.5415,74.649,30.657,84.8323ZM213.5742,63.3158a8.1257,8.1257,0,0,1-8.3144-8.6611c-.8188-1.5356,11.0581-35.3033,11.5125-37.4936H222.37L210.8891,52.563a3.6183,3.6183,0,0,0-.2067.7929l-.0169.0532-.0655.1935a.8438.8438,0,0,1-.0223.3119c-.1069.1336-.0414.693-.06.8461-.0092,4.2184,5.1736,3.5938,7.5609,1.3664A12.3454,12.3454,0,0,0,221.1046,52.5a6.3655,6.3655,0,0,0,.3863-6.31,6.3789,6.3789,0,0,1-.3736-5.7155l5.1145,1.6225-.2392,1.0393h8.3782l8.4558-25.9758h5.5968l-13.251,40.73h7.8065l-1.72,5.3421c-4.6406-.1742-11.0709,1.4258-11.4252-5.2241-.1174-1.3838,2.4065-8.0252,2.77-9.4508h-4.9872C227.516,55.5,220.86,63.3466,213.5742,63.3158Zm-129.69-.0819A10.0134,10.0134,0,0,1,74.165,52.79c-.2573-11.9447,16.99-19.0872,22.1984-6.499h1.8752l2.9672-9.2943,5.0759,1.65-.5688,1.5023h16.1105v5.4006H119.68a31.5167,31.5167,0,0,0-7.0574,7.919c-.9349,1.4731-1.2718,2.6391-.3489,3.9238.8859.9826,7.5528.3143,8.7672.5l-1.7221,5.3418c-2.602-.1174-7.1127.4688-9.4125-.9588a6.2779,6.2779,0,0,1-3.2616-4.5966c-.9961-4.44,2.2691-8.757,4.7157-12.1292-.9686.0536-4.0482-.1578-4.9282.2244-2.5837.7979-3.9309,3.7447-4.2747,6.1026.096-.0106-5.1418-.006-5.27-.0068C95.9979,57.8223,90.21,63.6161,83.8843,63.2339ZM79.7327,52.1127c-.4316,2.7529,1.543,5.6689,4.552,5.5507,3.2957.0524,5.7554-2.87,7.0587-5.6032-4.4265-.5511-5.9308-2.574-6.0934-6.9552C82.5563,46.4993,79.9886,48.9254,79.7327,52.1127ZM55.77,63.2339c-10.875-.2366-5.7912-14.4456-1.079-19.053,4.0214-4.1752,10.367-6.9955,15.4337-3.4867,2.0626,1.3644,2.4638,4.1315,1.5263,6.3907-1.4637,4.4435-6.7495,7.9266-10.84,10.8071h13.073l-1.7906,5.3419Zm.0354-8.6025h0A44.428,44.428,0,0,0,63.4,49.5207a32.2528,32.2528,0,0,0,3.4923-4.3895.621.621,0,0,0-.5793-.9231C64.0523,43.0079,53.9946,51.7515,55.805,54.6314Zm208.2358,8.6021c-3.7216.04-5.3223-1.9991-7.02-4.9543l-1.6239,4.9543c-2.5732-.2241-8.2266.8377-10.0216-1.4945-.8141-.7916-1.6041-2.8531-2.1279-3.8476h.4641c.1269-.6442,5.2732-16.6926,5.6078-17.7431h5.6814L249.313,57.8914h8.0824c-.4963-8.8626,8.1224-19.3262,17.3913-18.5322,3.19.3274,5.6616,2.4609,5.6115,5.7715-.0144.6356-.2537,2.5834-.3314,3.2634H274.66l.3949-3.8955c-4.8266-.26-9.1284,3.7555-11.0741,7.8649a7.8036,7.8036,0,0,1-.7165,1.6063,8.4021,8.4021,0,0,0-.6224,3.2044,2.138,2.138,0,0,0,1.3989.7172H315.21l-1.7789,5.3421Zm-8.6154-32.0562c-5.4412-.1243-5.4186-8.2159,0-8.3386C260.8824,22.9131,260.896,31.1047,255.4254,31.1773Z"/></g></svg>